<svg width="341.563" height="97.437" viewBox="0 0 341.563 97.437" xmlns="http://www.w3.org/2000/svg"><g id="svgGroup" stroke-linecap="round"  font-size="9pt" stroke="#000" stroke-width="0.25mm" fill="#333" style="stroke:#333;stroke-width:0.25mm;fill:#000"><path d="M 34.188 80.875 L 34.438 80.875 A 23.735 23.735 0 0 0 37.767 80.648 A 21.247 21.247 0 0 0 38.5 80.531 A 15.611 15.611 0 0 0 42.281 79.344 A 17.541 17.541 0 0 0 44.745 77.956 A 21.221 21.221 0 0 0 45.938 77.094 Q 47.75 75.687 49.625 73.625 A 13.715 13.715 0 0 1 50.084 74.06 Q 50.551 74.521 51.125 75.156 Q 51.727 75.822 52.21 76.355 A 493.03 493.03 0 0 0 52.625 76.813 A 39.98 39.98 0 0 1 50.016 79.32 A 29.697 29.697 0 0 1 47.438 81.344 A 29.287 29.287 0 0 1 44.234 83.29 A 24.579 24.579 0 0 1 42.312 84.187 A 23.767 23.767 0 0 1 37.197 85.681 A 22.349 22.349 0 0 1 37.156 85.688 A 32.054 32.054 0 0 1 32.45 86.118 A 35.641 35.641 0 0 1 31.75 86.125 L 30.844 86.125 A 2.908 2.908 0 0 1 30.27 86.066 A 3.478 3.478 0 0 1 30 86 A 45.554 45.554 0 0 1 25.594 90.094 A 40.282 40.282 0 0 1 22.061 92.672 A 35.242 35.242 0 0 1 20.875 93.406 A 27.392 27.392 0 0 1 18.088 94.856 A 22.374 22.374 0 0 1 16.219 95.594 Q 13.938 96.375 11.875 96.375 A 6.161 6.161 0 0 1 9.772 95.987 Q 9.003 95.709 8.211 95.231 A 11.264 11.264 0 0 1 7.844 95 A 20.437 20.437 0 0 1 4 91.719 A 22.595 22.595 0 0 1 2.057 89.299 A 18.9 18.9 0 0 1 1.125 87.812 A 14.427 14.427 0 0 1 0.607 86.807 Q 0.142 85.804 0.033 85.058 A 3.004 3.004 0 0 1 0 84.625 A 34.13 34.13 0 0 1 0.067 82.591 Q 0.194 80.48 0.561 77.661 A 117.524 117.524 0 0 1 0.688 76.719 A 70.584 70.584 0 0 1 1.492 72.108 Q 2.141 68.975 3.125 65.406 A 104.712 104.712 0 0 1 5.195 58.805 A 139.674 139.674 0 0 1 7.906 51.687 A 101.376 101.376 0 0 1 12.727 41.636 A 121.837 121.837 0 0 1 15.625 36.625 Q 20.362 28.873 24.825 23.319 A 77.186 77.186 0 0 1 27.531 20.125 A 114.159 114.159 0 0 1 31.68 15.726 Q 35.02 12.379 37.969 10.094 A 60.221 60.221 0 0 1 41.076 7.831 Q 43.912 5.911 46.25 4.906 Q 49.132 3.668 50.91 3.145 A 14.231 14.231 0 0 1 51.687 2.937 A 6.192 6.192 0 0 1 53.038 3.095 Q 53.664 3.235 54.338 3.499 A 11.301 11.301 0 0 1 54.719 3.656 A 13.862 13.862 0 0 1 57.328 5.154 A 15.849 15.849 0 0 1 57.906 5.594 A 18.266 18.266 0 0 1 60.687 8.344 A 10.479 10.479 0 0 1 61.804 9.997 A 8.338 8.338 0 0 1 62.438 11.5 A 31.748 31.748 0 0 1 60.633 17.837 A 37.92 37.92 0 0 1 59.531 20.344 Q 57.375 24.812 54.219 29.344 A 98.828 98.828 0 0 1 49.451 35.619 A 116.352 116.352 0 0 1 47 38.5 A 182.817 182.817 0 0 1 40.555 45.455 A 203.277 203.277 0 0 1 38.25 47.781 Q 33.563 52.437 28.469 57.062 Q 23.375 61.687 18.125 66.312 A 178.249 178.249 0 0 0 16.824 70.859 A 154.736 154.736 0 0 0 16.438 72.313 A 154.136 154.136 0 0 0 15.742 75.078 A 118.628 118.628 0 0 0 15.156 77.625 Q 14.729 79.586 14.463 81.163 A 48.61 48.61 0 0 0 14.344 81.906 Q 14.063 83.75 14.063 84.875 A 19.544 19.544 0 0 0 14.074 85.585 Q 14.117 86.755 14.313 87.219 A 0.908 0.908 0 0 0 14.962 87.766 Q 15.135 87.81 15.347 87.812 A 2.182 2.182 0 0 0 15.375 87.812 A 2.51 2.51 0 0 0 16.024 87.72 Q 16.329 87.639 16.665 87.484 A 6.355 6.355 0 0 0 17.281 87.156 Q 18.284 86.554 19.366 85.559 A 18.829 18.829 0 0 0 19.562 85.375 A 29.901 29.901 0 0 0 20.918 84.001 A 38.261 38.261 0 0 0 22 82.781 A 39.169 39.169 0 0 0 24.375 79.688 A 6.427 6.427 0 0 1 24.324 79.215 A 5.02 5.02 0 0 1 24.313 78.875 L 24.313 78.187 Q 24.313 75.812 25.063 73.5 Q 25.813 71.187 27 69.125 Q 28.188 67.062 29.656 65.25 A 37.479 37.479 0 0 1 31.504 63.131 A 31.495 31.495 0 0 1 32.625 62 Q 33.27 62.483 33.937 63.244 A 13.067 13.067 0 0 1 34.156 63.5 A 19.179 19.179 0 0 1 35.035 64.644 A 24.772 24.772 0 0 1 35.719 65.656 Q 36.5 66.875 37.219 68.187 A 160.972 160.972 0 0 1 38.625 70.812 Q 38.313 73.187 37.156 75.75 A 29.372 29.372 0 0 1 35.256 79.273 A 34.775 34.775 0 0 1 34.187 80.875 Z M 28.375 40.188 A 81.794 81.794 0 0 0 26.368 44.157 A 99.506 99.506 0 0 0 25.188 46.75 A 124.234 124.234 0 0 0 22.914 52.305 A 138.929 138.929 0 0 0 22.187 54.25 A 303.763 303.763 0 0 0 31.879 44.4 A 267.725 267.725 0 0 0 34.875 41.156 A 206.807 206.807 0 0 0 40.304 34.946 Q 42.858 31.897 45 29.062 Q 48.461 24.481 50.721 20.625 A 54.134 54.134 0 0 0 51.688 18.906 A 31.171 31.171 0 0 0 52.866 16.488 Q 53.926 14.027 54.094 12.173 A 7.494 7.494 0 0 0 54.125 11.5 A 1.815 1.815 0 0 0 54.101 11.192 Q 54.005 10.639 53.525 10.625 A 0.866 0.866 0 0 0 53.5 10.625 Q 52.631 10.625 50.632 11.781 A 26.474 26.474 0 0 0 50.313 11.969 A 16.042 16.042 0 0 0 48.806 13.004 Q 47.286 14.167 45.406 16.028 A 61.728 61.728 0 0 0 44.781 16.656 Q 42.42 19.063 39.605 22.7 A 125.122 125.122 0 0 0 37.344 25.719 Q 34.162 30.097 30.595 36.252 A 202.386 202.386 0 0 0 28.375 40.188 Z" id="0"/><path d="M 50.563 78.875 L 47.563 75.812 A 697.336 697.336 0 0 0 48.874 74.548 Q 49.458 73.983 50.107 73.354 A 1365.507 1365.507 0 0 0 51.469 72.031 A 225.94 225.94 0 0 0 55.938 67.563 A 72.294 72.294 0 0 1 54.453 66.648 A 54.456 54.456 0 0 1 53.125 65.781 Q 52.168 65.135 51.431 64.581 A 25.686 25.686 0 0 1 51 64.25 A 68.977 68.977 0 0 1 50.059 63.574 Q 49.619 63.253 49.234 62.959 A 40.411 40.411 0 0 1 49.125 62.875 A 0.613 0.613 0 0 1 48.824 62.532 Q 48.75 62.341 48.75 62.062 A 2.541 2.541 0 0 1 48.792 61.629 Q 48.899 61.015 49.281 60.094 A 23.765 23.765 0 0 1 49.883 58.766 A 31.638 31.638 0 0 1 50.625 57.344 A 77.859 77.859 0 0 1 52.143 54.726 A 86.089 86.089 0 0 1 52.375 54.344 A 61.362 61.362 0 0 1 53.297 52.883 A 48.082 48.082 0 0 1 54.188 51.562 A 43.128 43.128 0 0 1 54.788 50.725 Q 55.298 50.032 55.719 49.531 A 11.208 11.208 0 0 1 55.946 49.268 Q 56.369 48.796 56.533 48.754 A 0.12 0.12 0 0 1 56.562 48.75 A 0.307 0.307 0 0 1 56.63 48.761 Q 56.788 48.8 57.209 48.978 A 20.305 20.305 0 0 1 57.406 49.062 Q 58.125 49.375 58.938 49.781 A 10.746 10.746 0 0 1 60.264 50.564 A 9.778 9.778 0 0 1 60.438 50.687 A 5.935 5.935 0 0 1 60.767 50.944 Q 61.07 51.199 61.224 51.416 A 1.129 1.129 0 0 1 61.312 51.563 A 2.794 2.794 0 0 1 61.34 51.732 Q 61.377 52.009 61.415 52.532 A 38.511 38.511 0 0 1 61.437 52.875 A 92.997 92.997 0 0 1 61.484 53.687 Q 61.504 54.05 61.523 54.457 A 188.192 188.192 0 0 1 61.562 55.313 A 67.226 67.226 0 0 1 65.25 57.357 A 77.705 77.705 0 0 1 66.562 58.156 A 164.975 164.975 0 0 1 69.016 59.711 A 129.359 129.359 0 0 1 71.25 61.187 Q 73.75 62.812 76 64.5 A 2.819 2.819 0 0 1 76.526 64.91 A 1.959 1.959 0 0 1 77.031 65.75 A 3.128 3.128 0 0 1 77.118 66.128 Q 77.187 66.561 77.102 66.922 A 1.611 1.611 0 0 1 77.062 67.062 Q 76.364 69.157 75.366 71.76 A 166.337 166.337 0 0 1 75.031 72.625 A 501.373 501.373 0 0 0 72.687 78.75 Q 71.563 81.75 70.781 84.187 Q 70.006 86.605 70 87.67 A 2.941 2.941 0 0 0 70 87.688 A 0.54 0.54 0 0 0 70.019 87.836 Q 70.066 88.002 70.236 88.047 A 0.552 0.552 0 0 0 70.375 88.062 A 1.759 1.759 0 0 0 70.802 88.002 Q 71.438 87.84 72.438 87.25 A 27.996 27.996 0 0 0 73.526 86.57 Q 74.122 86.18 74.781 85.713 A 54.791 54.791 0 0 0 75.594 85.125 Q 77.375 83.812 79.313 82.25 A 154.959 154.959 0 0 0 82.808 79.348 A 142.053 142.053 0 0 0 83.031 79.156 Q 84.813 77.625 86.25 76.375 A 292.804 292.804 0 0 1 86.926 75.789 Q 87.875 74.969 88.438 74.5 A 22.663 22.663 0 0 1 88.732 74.801 Q 89.195 75.281 89.781 75.937 A 186.653 186.653 0 0 0 90.539 76.781 A 150.82 150.82 0 0 0 91.25 77.563 A 146.437 146.437 0 0 1 90.122 78.677 Q 89.612 79.177 89.034 79.734 A 308.427 308.427 0 0 1 87.813 80.906 A 107.229 107.229 0 0 1 84.814 83.658 A 125.53 125.53 0 0 1 83.344 84.937 Q 80.938 87 78.344 89.062 A 74.667 74.667 0 0 1 75.15 91.47 A 62.861 62.861 0 0 1 73.281 92.75 A 45.003 45.003 0 0 1 71.042 94.136 Q 69.816 94.844 68.688 95.375 A 14.545 14.545 0 0 1 67.428 95.902 Q 66.114 96.375 65.125 96.375 Q 64.229 96.375 62.877 95.776 A 12.433 12.433 0 0 1 62.75 95.719 Q 61.313 95.062 60 94.094 A 11.95 11.95 0 0 1 58.146 92.411 A 10.796 10.796 0 0 1 57.75 91.937 A 5.318 5.318 0 0 1 57.216 91.128 Q 56.958 90.638 56.865 90.159 A 2.799 2.799 0 0 1 56.812 89.625 A 134.738 134.738 0 0 1 57.633 86.164 Q 58.028 84.594 58.424 83.212 A 74.417 74.417 0 0 1 58.688 82.313 A 128.868 128.868 0 0 1 59.373 80.096 Q 59.721 79.008 60.05 78.059 A 65.452 65.452 0 0 1 60.438 76.969 A 85.129 85.129 0 0 1 60.832 75.912 Q 61.326 74.618 61.741 73.674 A 27.894 27.894 0 0 1 61.875 73.375 L 62.813 71.312 Q 62.063 71 61.375 70.625 L 60 69.875 A 65.285 65.285 0 0 1 58.945 70.969 A 82.205 82.205 0 0 1 57.781 72.125 A 270.83 270.83 0 0 1 55.313 74.5 Q 54.063 75.687 52.813 76.812 Q 51.563 77.937 50.563 78.875 Z" id="1"/><path d="M 123.25 87.688 A 2.979 2.979 0 0 0 123.897 87.608 Q 124.676 87.434 125.75 86.875 A 32.463 32.463 0 0 0 127.183 86.08 Q 127.906 85.657 128.689 85.155 A 55.781 55.781 0 0 0 129.219 84.812 Q 131.125 83.562 133.125 82.031 A 256.759 256.759 0 0 0 136.505 79.399 A 232.326 232.326 0 0 0 136.969 79.031 Q 138.753 77.61 140.157 76.423 A 99.706 99.706 0 0 0 140.25 76.344 Q 141.688 75.125 142.438 74.5 A 22.663 22.663 0 0 1 142.732 74.801 Q 143.195 75.281 143.781 75.937 A 186.653 186.653 0 0 0 144.539 76.781 A 150.82 150.82 0 0 0 145.25 77.563 A 86.854 86.854 0 0 1 144.122 78.668 Q 143.612 79.16 143.034 79.704 A 177.736 177.736 0 0 1 141.813 80.844 A 123.005 123.005 0 0 1 138.686 83.632 A 142.825 142.825 0 0 1 137.375 84.75 Q 135 86.75 132.438 88.687 Q 129.875 90.625 127.438 92.187 A 40.221 40.221 0 0 1 125.149 93.555 Q 124.044 94.164 123.012 94.626 A 24.472 24.472 0 0 1 122.875 94.687 A 15.093 15.093 0 0 1 121.614 95.182 Q 120.301 95.625 119.313 95.625 A 5.893 5.893 0 0 1 118.281 95.527 Q 117.478 95.384 116.531 95.031 Q 114.938 94.437 113.469 93.531 Q 112 92.625 110.969 91.531 A 4.945 4.945 0 0 1 110.425 90.851 Q 110.162 90.449 110.041 90.052 A 2.311 2.311 0 0 1 109.938 89.375 Q 109.989 87.173 110.627 84.384 A 40.205 40.205 0 0 1 110.937 83.125 A 103.491 103.491 0 0 1 112.537 77.676 A 115.472 115.472 0 0 1 113.156 75.812 A 149.769 149.769 0 0 1 115.906 68.406 A 303.489 303.489 0 0 1 117.235 65.15 Q 117.87 63.621 118.458 62.26 A 181.721 181.721 0 0 1 118.625 61.875 A 1.232 1.232 0 0 0 118.361 61.984 Q 117.943 62.204 117.194 62.82 A 24.846 24.846 0 0 0 116.687 63.25 Q 115.25 64.5 113.219 66.656 A 65.009 65.009 0 0 0 111.37 68.71 Q 110.443 69.782 109.451 71.009 A 113.792 113.792 0 0 0 108.781 71.844 A 68.562 68.562 0 0 0 105.798 75.914 A 83.724 83.724 0 0 0 104.031 78.625 A 86.387 86.387 0 0 0 100.639 84.584 A 98.836 98.836 0 0 0 99.562 86.719 Q 97.438 91.062 96 95.875 A 3.288 3.288 0 0 1 95.868 96.268 Q 95.787 96.463 95.687 96.615 A 1.349 1.349 0 0 1 95.469 96.875 A 0.984 0.984 0 0 1 95.161 97.059 Q 94.872 97.172 94.433 97.186 A 3.956 3.956 0 0 1 94.312 97.187 A 1.73 1.73 0 0 1 93.97 97.148 Q 93.61 97.074 93.099 96.863 A 11.385 11.385 0 0 1 92.562 96.625 A 27.494 27.494 0 0 1 91.108 95.88 A 34.432 34.432 0 0 1 90.062 95.281 A 41.33 41.33 0 0 1 87.5 93.625 Q 86.6 92.995 85.96 92.463 A 12.641 12.641 0 0 1 85.5 92.062 Q 85.125 91.625 84.875 91.25 A 0.981 0.981 0 0 1 84.869 91.241 Q 84.625 90.866 84.625 90.125 Q 84.625 87.13 85.35 83.146 A 71.089 71.089 0 0 1 86 80 A 113.386 113.386 0 0 1 87.633 73.742 A 150.406 150.406 0 0 1 89.781 66.969 A 219.236 219.236 0 0 1 93.474 57.005 A 258.783 258.783 0 0 1 95.406 52.281 Q 98.625 44.625 102.281 37.25 A 207.602 207.602 0 0 1 109.411 24.054 A 189.778 189.778 0 0 1 109.906 23.219 A 150.893 150.893 0 0 1 113.844 16.953 A 112.752 112.752 0 0 1 117.719 11.469 A 71.606 71.606 0 0 1 120.79 7.66 Q 122.307 5.913 123.773 4.498 A 37.205 37.205 0 0 1 125.094 3.281 A 19.802 19.802 0 0 1 127.033 1.771 Q 129.451 0.135 131.563 0 A 10.875 10.875 0 0 1 133.372 0.742 A 13.666 13.666 0 0 1 134.469 1.375 Q 135.938 2.312 137.25 3.437 A 38.853 38.853 0 0 1 138.638 4.683 A 30.781 30.781 0 0 1 139.594 5.625 A 30.843 30.843 0 0 1 140.193 6.259 Q 140.497 6.59 140.745 6.885 A 12.386 12.386 0 0 1 141.188 7.437 A 2.66 2.66 0 0 1 141.615 8.313 A 3.267 3.267 0 0 1 141.688 8.625 A 14.035 14.035 0 0 1 141.742 8.945 Q 141.789 9.245 141.805 9.448 A 2.359 2.359 0 0 1 141.813 9.625 A 10.473 10.473 0 0 1 141.651 11.379 Q 141.507 12.222 141.235 13.174 A 25.841 25.841 0 0 1 140.563 15.188 A 47.243 47.243 0 0 1 139.277 18.241 Q 138.565 19.789 137.676 21.481 A 85.585 85.585 0 0 1 137.062 22.625 A 90.984 90.984 0 0 1 134.57 26.898 A 121.932 121.932 0 0 1 131.594 31.469 A 170.71 170.71 0 0 1 126.612 38.381 A 198.546 198.546 0 0 1 124.469 41.156 A 200.033 200.033 0 0 1 118.258 48.662 A 222.911 222.911 0 0 1 116.031 51.187 A 182.598 182.598 0 0 1 106.562 61 A 140.838 140.838 0 0 0 104.828 65.957 A 125.887 125.887 0 0 0 104.313 67.562 A 109.066 109.066 0 0 1 106.765 65.096 Q 108.742 63.172 110.5 61.687 A 67.615 67.615 0 0 1 112.521 60.042 Q 114.133 58.785 115.5 57.906 A 34.229 34.229 0 0 1 116.803 57.107 Q 117.479 56.714 118.079 56.415 A 13.663 13.663 0 0 1 119.219 55.906 Q 120.428 55.437 121.189 55.339 A 2.922 2.922 0 0 1 121.563 55.313 Q 122.084 55.312 123.355 55.929 A 19.015 19.015 0 0 1 123.562 56.031 A 30.185 30.185 0 0 1 125.361 57.012 A 37.413 37.413 0 0 1 126.562 57.75 A 33.024 33.024 0 0 1 128.755 59.277 A 28.692 28.692 0 0 1 129.438 59.812 A 13.361 13.361 0 0 1 130.031 60.32 Q 130.828 61.047 131.063 61.562 Q 131.179 61.853 131.079 62.333 A 2.925 2.925 0 0 1 131.063 62.406 A 9.838 9.838 0 0 1 130.984 62.717 Q 130.901 63.025 130.818 63.236 A 2.85 2.85 0 0 1 130.813 63.25 Q 130.329 64.7 129.684 66.543 A 351.384 351.384 0 0 1 129.469 67.156 A 346.165 346.165 0 0 1 128.656 69.437 A 409.173 409.173 0 0 1 127.781 71.844 Q 126.875 74.312 126 76.812 Q 125.125 79.312 124.438 81.406 A 103.035 103.035 0 0 0 123.957 82.906 Q 123.586 84.098 123.313 85.094 A 26.144 26.144 0 0 0 123.131 85.788 Q 122.894 86.758 122.876 87.24 A 2.027 2.027 0 0 0 122.875 87.312 A 0.54 0.54 0 0 0 122.894 87.461 Q 122.941 87.627 123.111 87.672 A 0.552 0.552 0 0 0 123.25 87.687 Z M 117.75 33.937 A 337.112 337.112 0 0 0 114.844 40.281 A 241.862 241.862 0 0 0 112.125 46.625 A 314.781 314.781 0 0 0 120.25 35.719 Q 124.188 30.187 127.281 25.094 A 95.45 95.45 0 0 0 129.914 20.49 Q 131.086 18.292 131.996 16.264 A 56.272 56.272 0 0 0 132.25 15.688 Q 134.125 11.375 134.125 8.437 A 5.775 5.775 0 0 0 134.11 8.005 Q 134.039 7.062 133.625 7.062 A 0.915 0.915 0 0 0 133.201 7.189 Q 132.622 7.501 131.748 8.576 A 18.155 18.155 0 0 0 131.344 9.094 A 38.138 38.138 0 0 0 130.329 10.513 Q 129.148 12.238 127.688 14.687 A 116.154 116.154 0 0 0 126.037 17.553 Q 124.613 20.102 123.031 23.187 A 338.167 338.167 0 0 0 120.445 28.344 A 421.804 421.804 0 0 0 117.75 33.937 Z" id="2"/><path d="M 170.438 64.25 L 170.313 64.375 A 43.974 43.974 0 0 1 169.47 65.362 Q 168.578 66.379 167.326 67.712 A 155.555 155.555 0 0 1 166.906 68.156 Q 165.381 69.768 163.575 71.999 A 111.527 111.527 0 0 0 161.875 74.156 Q 159.063 77.812 155.938 82.969 Q 153.02 87.783 150.211 94.258 A 133.871 133.871 0 0 0 149.812 95.187 Q 149.446 96.043 149.139 96.54 A 4.852 4.852 0 0 1 149.125 96.563 A 0.963 0.963 0 0 1 148.639 96.951 Q 148.464 97.019 148.241 97.045 A 2.561 2.561 0 0 1 147.938 97.062 Q 147.062 97.062 145.995 96.659 A 9.19 9.19 0 0 1 145.531 96.469 A 15.47 15.47 0 0 1 143.914 95.631 A 19.42 19.42 0 0 1 142.781 94.906 Q 141.375 93.937 139.969 92.75 A 33.448 33.448 0 0 1 138.321 91.266 A 28.015 28.015 0 0 1 137.438 90.375 Q 137.438 90 137.781 88.25 A 76.029 76.029 0 0 1 137.971 87.318 Q 138.281 85.836 138.75 83.844 A 135.476 135.476 0 0 1 139.357 81.376 Q 139.785 79.697 140.313 77.781 A 186.723 186.723 0 0 1 141.72 72.935 A 219.097 219.097 0 0 1 142.437 70.625 A 207.893 207.893 0 0 1 145.009 63.03 A 229.355 229.355 0 0 1 145.031 62.969 A 107.039 107.039 0 0 1 148.063 55.438 Q 150.688 56.687 153.906 58.5 A 34.469 34.469 0 0 1 159.875 62.75 Q 159.125 64.75 158.375 66.812 Q 157.625 68.875 156.875 71.062 A 235.578 235.578 0 0 1 158.775 68.916 Q 161.523 65.852 163.656 63.719 A 109.284 109.284 0 0 1 165.508 61.908 Q 167.177 60.316 168.469 59.25 A 33.165 33.165 0 0 1 169.517 58.418 Q 170.546 57.636 171.318 57.208 A 7.223 7.223 0 0 1 171.656 57.031 A 9.751 9.751 0 0 1 172.266 56.758 Q 173.058 56.437 173.563 56.437 A 2.435 2.435 0 0 1 174.068 56.498 Q 174.579 56.608 175.288 56.916 A 14.618 14.618 0 0 1 176 57.25 A 23.032 23.032 0 0 1 178.249 58.544 A 27.414 27.414 0 0 1 179.281 59.25 A 23.807 23.807 0 0 1 181.006 60.606 A 18.865 18.865 0 0 1 182.156 61.687 A 7.347 7.347 0 0 1 182.689 62.293 Q 183.21 62.961 183.335 63.527 A 1.611 1.611 0 0 1 183.375 63.875 A 1.461 1.461 0 0 1 183.367 64.022 Q 183.353 64.164 183.313 64.344 Q 183.257 64.595 183.151 64.972 A 22.738 22.738 0 0 1 183.125 65.062 A 68.515 68.515 0 0 1 182.71 66.313 Q 182.332 67.422 181.844 68.75 A 328.373 328.373 0 0 1 180.619 72.025 A 367.758 367.758 0 0 1 180.188 73.156 L 178.438 77.719 A 144.861 144.861 0 0 0 177.609 79.93 A 116.679 116.679 0 0 0 176.875 82 A 104.036 104.036 0 0 0 176.395 83.43 Q 176.209 83.996 176.048 84.514 A 57.306 57.306 0 0 0 175.75 85.5 Q 175.313 87 175.313 87.687 A 0.54 0.54 0 0 0 175.331 87.836 Q 175.379 88.002 175.549 88.047 A 0.552 0.552 0 0 0 175.688 88.062 A 1.759 1.759 0 0 0 176.115 88.002 Q 176.751 87.84 177.75 87.25 A 27.996 27.996 0 0 0 178.838 86.57 Q 179.435 86.18 180.094 85.713 A 54.791 54.791 0 0 0 180.906 85.125 Q 182.688 83.812 184.625 82.25 A 154.959 154.959 0 0 0 188.12 79.348 A 142.053 142.053 0 0 0 188.344 79.156 Q 190.125 77.625 191.563 76.375 A 292.804 292.804 0 0 1 192.238 75.789 Q 193.188 74.969 193.75 74.5 A 11.573 11.573 0 0 1 194.236 74.966 Q 194.499 75.231 194.78 75.545 A 22.185 22.185 0 0 1 195.125 75.938 A 71.645 71.645 0 0 0 195.859 76.781 A 59.438 59.438 0 0 0 196.562 77.563 A 146.437 146.437 0 0 1 195.435 78.677 Q 194.924 79.177 194.347 79.734 A 308.427 308.427 0 0 1 193.125 80.906 A 107.229 107.229 0 0 1 190.127 83.658 A 125.53 125.53 0 0 1 188.656 84.937 Q 186.25 87 183.656 89.062 A 79.997 79.997 0 0 1 180.475 91.47 A 66.446 66.446 0 0 1 178.625 92.75 Q 176.188 94.375 174.063 95.375 A 14.545 14.545 0 0 1 172.803 95.902 Q 171.489 96.375 170.5 96.375 Q 169.604 96.375 168.252 95.776 A 12.433 12.433 0 0 1 168.125 95.719 Q 166.688 95.062 165.344 94.094 A 11.742 11.742 0 0 1 163.622 92.588 A 10.333 10.333 0 0 1 163.063 91.937 A 5.318 5.318 0 0 1 162.529 91.128 Q 162.27 90.638 162.177 90.159 A 2.799 2.799 0 0 1 162.125 89.625 A 66.33 66.33 0 0 1 162.695 87.251 Q 163.111 85.641 163.656 83.812 A 237.628 237.628 0 0 1 165.68 77.369 A 257.981 257.981 0 0 1 165.75 77.156 A 234.076 234.076 0 0 1 168.094 70.406 A 240.763 240.763 0 0 1 169.289 67.195 A 189.111 189.111 0 0 1 170.438 64.25 Z" id="3"/><path d="M 214.96 85.149 A 1.211 1.211 0 0 0 215 84.875 Q 215 84.672 214.567 84.242 A 6.66 6.66 0 0 0 214.344 84.031 Q 213.688 83.437 212.656 82.687 A 52.909 52.909 0 0 0 211.563 81.914 A 69.792 69.792 0 0 0 210.344 81.094 A 32.716 32.716 0 0 0 209.705 80.684 A 28.866 28.866 0 0 0 207.813 79.594 A 28.92 28.92 0 0 0 206.602 78.992 A 22.043 22.043 0 0 0 205.469 78.5 Q 204.708 78.196 204.174 78.103 A 2.501 2.501 0 0 0 203.75 78.063 A 0.212 0.212 0 0 0 203.718 78.065 Q 203.406 78.113 202.685 79.055 A 17.044 17.044 0 0 0 202.312 79.563 Q 201.765 80.336 201.2 81.242 A 47.48 47.48 0 0 0 200.125 83.062 A 35.118 35.118 0 0 0 198.156 87.156 A 20.963 20.963 0 0 0 197.886 87.861 Q 197.508 88.906 197.379 89.666 A 4.276 4.276 0 0 0 197.312 90.375 A 0.205 0.205 0 0 0 197.315 90.403 Q 197.357 90.711 198.308 91.359 A 15.185 15.185 0 0 0 198.812 91.688 A 33.549 33.549 0 0 0 200.414 92.625 A 44.152 44.152 0 0 0 202.219 93.562 A 98.69 98.69 0 0 0 203.622 94.239 A 81.947 81.947 0 0 0 205.844 95.25 A 28.172 28.172 0 0 0 206.446 95.505 Q 207.33 95.867 207.785 95.964 A 1.375 1.375 0 0 0 208.062 96 Q 208.625 96 209.75 94.437 A 45.679 45.679 0 0 0 210.891 92.773 A 59.598 59.598 0 0 0 212.062 90.906 A 56.794 56.794 0 0 0 212.976 89.338 A 45.584 45.584 0 0 0 214.125 87.156 A 28.262 28.262 0 0 0 214.43 86.516 Q 214.848 85.608 214.96 85.149 Z" id="4"/><path d="M 242.5 62.75 A 207.605 207.605 0 0 0 241.023 66.686 A 223.15 223.15 0 0 0 241 66.75 Q 240.25 68.812 239.563 70.937 Q 243.5 66.25 246.094 63.437 Q 248.414 60.922 250.034 59.406 A 35.439 35.439 0 0 1 250.406 59.063 A 29.631 29.631 0 0 1 251.374 58.217 Q 252.304 57.443 253.018 57.01 A 6.976 6.976 0 0 1 253.25 56.875 A 15.433 15.433 0 0 1 254.198 56.388 Q 254.638 56.182 255.045 56.032 A 8.734 8.734 0 0 1 255.312 55.938 A 1.665 1.665 0 0 1 255.643 55.977 Q 256.156 56.082 257.028 56.475 A 17.226 17.226 0 0 1 257.219 56.562 A 28.817 28.817 0 0 1 258.609 57.258 A 37.909 37.909 0 0 1 260.094 58.094 A 43.708 43.708 0 0 1 262.914 59.908 A 40.133 40.133 0 0 1 263 59.969 Q 264.113 60.753 264.693 61.312 A 4.909 4.909 0 0 1 264.938 61.562 A 0.966 0.966 0 0 1 265.223 62.26 Q 265.227 62.588 265.063 63 Q 264.313 65 263.594 67.031 A 161.373 161.373 0 0 0 262.187 71.187 A 330.173 330.173 0 0 1 264.195 68.9 Q 266.673 66.106 268.579 64.103 A 105.972 105.972 0 0 1 269.188 63.469 A 143.995 143.995 0 0 1 270.529 62.1 Q 272.445 60.172 273.781 59 A 32.036 32.036 0 0 1 274.623 58.285 Q 275.479 57.585 276.108 57.195 A 5.705 5.705 0 0 1 276.563 56.938 A 7.918 7.918 0 0 1 277.063 56.707 Q 277.559 56.501 277.918 56.452 A 1.55 1.55 0 0 1 278.125 56.438 A 2.435 2.435 0 0 1 278.63 56.498 Q 279.141 56.608 279.85 56.916 A 14.618 14.618 0 0 1 280.563 57.25 A 23.032 23.032 0 0 1 282.812 58.544 A 27.414 27.414 0 0 1 283.844 59.25 A 23.807 23.807 0 0 1 285.569 60.606 A 18.865 18.865 0 0 1 286.719 61.687 A 7.347 7.347 0 0 1 287.252 62.293 Q 287.773 62.961 287.898 63.527 A 1.611 1.611 0 0 1 287.937 63.875 A 1.461 1.461 0 0 1 287.929 64.022 Q 287.915 64.164 287.875 64.344 Q 287.819 64.595 287.713 64.972 A 22.738 22.738 0 0 1 287.687 65.062 A 68.515 68.515 0 0 1 287.273 66.313 Q 286.895 67.422 286.406 68.75 A 328.373 328.373 0 0 1 285.182 72.025 A 367.758 367.758 0 0 1 284.75 73.156 L 283 77.719 A 144.861 144.861 0 0 0 282.172 79.93 A 116.679 116.679 0 0 0 281.438 82 A 104.036 104.036 0 0 0 280.957 83.43 Q 280.771 83.996 280.61 84.514 A 57.306 57.306 0 0 0 280.313 85.5 Q 279.875 87 279.875 87.687 A 0.54 0.54 0 0 0 279.894 87.836 Q 279.941 88.002 280.111 88.047 A 0.552 0.552 0 0 0 280.25 88.062 A 1.759 1.759 0 0 0 280.677 88.002 Q 281.313 87.84 282.313 87.25 A 27.996 27.996 0 0 0 283.401 86.57 Q 283.997 86.18 284.656 85.713 A 54.791 54.791 0 0 0 285.469 85.125 Q 287.25 83.812 289.188 82.25 A 154.959 154.959 0 0 0 292.683 79.348 A 142.053 142.053 0 0 0 292.906 79.156 Q 294.688 77.625 296.125 76.375 A 292.804 292.804 0 0 1 296.801 75.789 Q 297.75 74.969 298.313 74.5 A 22.663 22.663 0 0 1 298.607 74.801 Q 299.07 75.281 299.656 75.937 A 186.653 186.653 0 0 0 300.414 76.781 A 150.82 150.82 0 0 0 301.125 77.563 A 146.437 146.437 0 0 1 299.997 78.677 Q 299.487 79.177 298.909 79.734 A 308.427 308.427 0 0 1 297.688 80.906 A 107.229 107.229 0 0 1 294.689 83.658 A 125.53 125.53 0 0 1 293.219 84.937 Q 290.813 87 288.219 89.062 A 79.997 79.997 0 0 1 285.038 91.47 A 66.446 66.446 0 0 1 283.187 92.75 Q 280.75 94.375 278.625 95.375 Q 277.242 96.026 276.124 96.253 A 5.659 5.659 0 0 1 275 96.375 Q 274.104 96.375 272.752 95.776 A 12.433 12.433 0 0 1 272.625 95.719 Q 271.188 95.062 269.875 94.094 A 11.95 11.95 0 0 1 268.021 92.411 A 10.796 10.796 0 0 1 267.625 91.937 A 5.318 5.318 0 0 1 267.091 91.128 Q 266.833 90.638 266.74 90.159 A 2.799 2.799 0 0 1 266.687 89.625 Q 267.171 87.423 267.931 84.713 A 128.471 128.471 0 0 1 268.188 83.812 A 181.733 181.733 0 0 1 270.11 77.581 A 198.383 198.383 0 0 1 270.25 77.156 A 212.055 212.055 0 0 1 272.594 70.438 A 263.957 263.957 0 0 1 273.789 67.25 A 209.912 209.912 0 0 1 274.938 64.313 Q 273.688 65.812 271.625 67.937 A 42.192 42.192 0 0 0 269.999 69.72 Q 268.578 71.363 266.938 73.531 A 65.603 65.603 0 0 0 264.916 76.366 Q 263.188 78.922 261.313 82.125 A 76.177 76.177 0 0 0 258.734 86.945 Q 257.465 89.523 256.195 92.505 A 141.076 141.076 0 0 0 255.313 94.625 Q 255.018 95.608 254.066 95.818 A 2.627 2.627 0 0 1 253.5 95.875 A 5.137 5.137 0 0 1 252.896 95.836 Q 252.586 95.799 252.232 95.727 A 11.747 11.747 0 0 1 251.656 95.594 A 10.885 10.885 0 0 1 250.423 95.193 A 14.337 14.337 0 0 1 249.344 94.719 A 18.481 18.481 0 0 1 247.796 93.867 A 22.642 22.642 0 0 1 246.844 93.25 A 13.134 13.134 0 0 1 244.865 91.581 A 14.978 14.978 0 0 1 244.438 91.125 A 2.13 2.13 0 0 1 244.454 90.898 Q 244.513 90.383 244.781 89.072 A 94.811 94.811 0 0 1 244.906 88.469 A 71.61 71.61 0 0 1 245.168 87.283 Q 245.602 85.391 246.281 82.812 Q 247.173 79.43 248.398 75.26 A 390.169 390.169 0 0 1 248.438 75.125 A 185.944 185.944 0 0 1 250.488 68.609 A 207.242 207.242 0 0 1 251.25 66.375 Q 249.825 67.919 247.722 70.281 A 538.186 538.186 0 0 0 247.5 70.531 A 58.645 58.645 0 0 0 245.471 72.949 Q 244.465 74.213 243.402 75.667 A 102.22 102.22 0 0 0 242.687 76.656 A 80.961 80.961 0 0 0 240.094 80.539 Q 238.786 82.617 237.448 84.981 A 154.444 154.444 0 0 0 237.437 85 A 77.496 77.496 0 0 0 234.513 90.739 A 99.638 99.638 0 0 0 232.375 95.75 A 2.117 2.117 0 0 1 232.08 96.392 Q 231.704 96.926 231.003 97.035 A 2.47 2.47 0 0 1 230.625 97.063 Q 229.749 97.062 228.682 96.659 A 9.19 9.19 0 0 1 228.219 96.469 A 15.47 15.47 0 0 1 226.601 95.631 A 19.42 19.42 0 0 1 225.469 94.906 Q 224.063 93.937 222.656 92.75 A 33.448 33.448 0 0 1 221.008 91.266 A 28.015 28.015 0 0 1 220.125 90.375 Q 220.125 90 220.469 88.25 A 76.029 76.029 0 0 1 220.658 87.318 Q 220.969 85.836 221.438 83.844 Q 221.975 81.561 222.719 78.724 A 299.859 299.859 0 0 1 222.969 77.781 A 152.17 152.17 0 0 1 224.348 72.935 A 179.183 179.183 0 0 1 225.062 70.625 Q 226.25 66.875 227.688 62.969 Q 229.125 59.062 230.75 55.437 Q 233.375 56.687 236.594 58.5 Q 239.813 60.312 242.5 62.75 Z" id="5"/><path d="M 338.5 74.5 L 341.563 77.562 A 132.413 132.413 0 0 1 336.316 82.438 Q 333.425 84.975 330.719 87 A 75.672 75.672 0 0 1 325.78 90.414 A 55.397 55.397 0 0 1 321 93.125 A 46.987 46.987 0 0 1 316.477 95.109 A 36.011 36.011 0 0 1 312.156 96.437 A 36.527 36.527 0 0 1 305.698 97.39 A 32.619 32.619 0 0 1 303.938 97.437 Q 302.607 97.437 301.044 96.661 A 11.703 11.703 0 0 1 300.188 96.187 A 20.334 20.334 0 0 1 296.344 93.156 A 21.232 21.232 0 0 1 294.175 90.633 A 18.268 18.268 0 0 1 293.375 89.438 A 11.529 11.529 0 0 1 292.775 88.337 Q 292.188 87.092 292.188 86.125 A 32.545 32.545 0 0 1 292.683 80.337 A 26.891 26.891 0 0 1 293.594 76.719 A 32.171 32.171 0 0 1 296.213 70.771 A 28.634 28.634 0 0 1 297.313 69 A 31.551 31.551 0 0 1 302.594 62.938 A 34.401 34.401 0 0 1 307.385 59.37 A 30.804 30.804 0 0 1 308.781 58.563 Q 312 56.812 315.188 55.937 A 26.267 26.267 0 0 1 318.158 55.295 A 19.198 19.198 0 0 1 321.062 55.063 A 7.066 7.066 0 0 1 323.832 55.644 A 9.017 9.017 0 0 1 324.906 56.188 Q 326.813 57.312 328.375 58.937 A 16.775 16.775 0 0 1 330.17 61.138 A 14.372 14.372 0 0 1 330.906 62.344 A 10.674 10.674 0 0 1 331.417 63.411 Q 331.645 63.971 331.76 64.476 A 4.355 4.355 0 0 1 331.875 65.438 Q 331.875 67.562 330.094 69.781 A 18.44 18.44 0 0 1 328.404 71.599 Q 326.992 72.939 325.063 74.312 A 55.69 55.69 0 0 1 321.968 76.354 Q 320.354 77.347 318.507 78.356 A 95.656 95.656 0 0 1 317.25 79.031 A 146.514 146.514 0 0 1 312.453 81.445 A 184.52 184.52 0 0 1 307.187 83.875 Q 307 85.375 307 86.812 Q 307 88.452 307.604 89.196 A 1.654 1.654 0 0 0 307.844 89.437 Q 308.525 89.993 310.165 90.1 A 12.886 12.886 0 0 0 311 90.125 A 22.019 22.019 0 0 0 318.322 88.917 A 20.999 20.999 0 0 0 318.781 88.75 A 36.57 36.57 0 0 0 325.813 85.187 Q 329.188 83 332.313 80.187 Q 335.438 77.375 338.5 74.5 Z M 319.562 61.937 A 2.804 2.804 0 0 0 318.527 62.151 Q 317.715 62.473 316.813 63.281 A 15.518 15.518 0 0 0 315.5 64.619 Q 314.867 65.341 314.234 66.214 A 27.891 27.891 0 0 0 313.812 66.812 A 34.416 34.416 0 0 0 312.176 69.461 A 44.737 44.737 0 0 0 310.937 71.844 Q 309.563 74.687 308.563 77.75 A 74.055 74.055 0 0 0 313.094 74.563 Q 315.313 72.875 317.063 71.031 A 20.139 20.139 0 0 0 318.814 68.927 A 16.32 16.32 0 0 0 319.875 67.25 A 8.92 8.92 0 0 0 320.688 65.252 A 7.284 7.284 0 0 0 320.938 63.375 Q 320.938 62.812 320.594 62.375 A 1.104 1.104 0 0 0 319.95 61.978 A 1.735 1.735 0 0 0 319.563 61.937 Z" id="6"/></g></svg>